<svg width="40" height="40" viewBox="0 0 40 40" fill="none" xmlns="http://www.w3.org/2000/svg">
<path d="M20.0088 0.00415039H19.9988C8.97355 0.00415039 0.00787354 8.97232 0.00787354 20.0001C0.00787354 24.3742 1.41759 28.4284 3.8146 31.7202L1.32261 39.1487L9.00854 36.6917C12.1704 38.7863 15.9421 39.996 20.0088 39.996C31.0341 39.996 39.9997 31.0253 39.9997 20.0001C39.9997 8.97482 31.0341 0.00415039 20.0088 0.00415039ZM31.6439 28.2409C31.1615 29.6031 29.2469 30.7329 27.7197 31.0628C26.6749 31.2853 25.3102 31.4627 20.7162 29.5581C14.8399 27.1236 11.0556 21.1523 10.7607 20.7649C10.4782 20.3775 8.38617 17.6031 8.38617 14.7337C8.38617 11.8642 9.84337 10.467 10.4308 9.86714C10.9132 9.37474 11.7105 9.14979 12.4753 9.14979C12.7228 9.14979 12.9452 9.16229 13.1452 9.17228C13.7326 9.19728 14.0275 9.23227 14.4149 10.1596C14.8973 11.3218 16.0721 14.1913 16.2121 14.4862C16.3545 14.7811 16.497 15.1811 16.2971 15.5685C16.1096 15.9684 15.9446 16.1459 15.6497 16.4858C15.3547 16.8257 15.0748 17.0857 14.7799 17.4506C14.5099 17.768 14.205 18.108 14.5449 18.6953C14.8848 19.2702 16.0596 21.1873 17.7893 22.727C20.0213 24.7141 21.8309 25.349 22.4783 25.6189C22.9607 25.8189 23.5356 25.7714 23.888 25.3965C24.3354 24.9141 24.8878 24.1142 25.4502 23.3269C25.8501 22.762 26.355 22.692 26.8849 22.892C27.4248 23.0795 30.2817 24.4917 30.8691 24.7841C31.4565 25.079 31.8439 25.219 31.9864 25.4665C32.1263 25.7139 32.1263 26.8762 31.6439 28.2409Z" fill="white"/>
</svg>
