<svg width="40" height="40" viewBox="0 0 40 40" fill="none" xmlns="http://www.w3.org/2000/svg">
<path d="M38.8095 24.2216C41.7033 11.2196 30.3113 -0.592122 16.9329 1.67533C9.67014 -2.83127 -0.000244141 2.26133 -0.000244141 10.9016C-0.000244141 12.911 0.554205 14.7922 1.51825 16.4137C-1.17075 29.4458 10.3145 41.0877 23.6812 38.6654C33.1301 43.6614 43.5714 33.6976 38.8095 24.2216ZM26.0921 32.0628C22.5823 33.5062 16.8064 33.5145 13.3115 31.6849C8.32814 29.0279 7.44236 23.0463 11.7414 23.0463C14.9815 23.0463 13.9559 26.8237 17.2276 28.3636C18.7295 29.0579 21.9579 29.1294 23.8344 27.8642C25.6875 26.6239 25.5177 24.6728 24.5104 23.7405C21.8414 21.2766 14.204 22.2555 10.7124 17.942C9.19561 16.0708 8.90923 12.7695 10.774 10.3755C14.0241 6.19358 23.5613 5.93886 27.6623 9.09698C31.4485 12.027 30.4262 15.916 27.3709 15.916C23.6962 15.916 25.6276 11.108 19.6952 11.108C15.3944 11.108 13.7028 14.1663 16.7315 15.6546C20.8374 17.694 31.3003 17.0131 31.3003 24.9824C31.292 28.2987 29.259 30.7709 26.0921 32.0628Z" fill="white"/>
</svg>
