<svg width="27" height="26" viewBox="0 0 27 26" fill="none" xmlns="http://www.w3.org/2000/svg">
<path fill-rule="evenodd" clip-rule="evenodd" d="M13.2816 25.902C20.4371 25.902 26.2378 20.1255 26.2378 12.9999C26.2378 5.87434 20.4371 0.0979004 13.2816 0.0979004C6.12612 0.0979004 0.325439 5.87434 0.325439 12.9999C0.325439 14.3143 0.522792 15.5827 0.889596 16.7774C0.983192 16.7942 1.13454 16.8326 1.35508 16.8969L1.01075 11.5017C1.01075 11.4028 1.17826 11.3552 1.33174 11.3117C1.41597 11.2877 1.49597 11.265 1.54173 11.2357C1.66669 11.157 4.23991 12.0927 4.37736 12.1548L7.6679 13.637C8.51762 13.1029 9.53394 12.8876 10.5336 13.0325L13.5242 9.40147C13.5617 6.50326 15.9359 4.16813 18.8558 4.16399C21.584 4.19297 23.8457 6.26312 24.104 8.95846C24.3789 11.8732 22.2296 14.4568 19.2973 14.7342L14.3156 18.2741C14.0116 19.8268 12.8953 21.0978 11.3875 21.6029C9.07576 22.3813 6.56411 21.1475 5.78521 18.8455L4.05247 18.2741C3.924 18.2335 1.56586 17.2566 0.927218 16.8979C2.58662 22.1182 7.49039 25.902 13.2816 25.902ZM21.5217 9.46349C21.5217 10.9269 20.3281 12.1133 18.8558 12.1133C17.3836 12.1133 16.19 10.9269 16.19 9.46349C16.19 8.00005 17.3836 6.81369 18.8558 6.81369C20.3281 6.81369 21.5217 8.00005 21.5217 9.46349ZM20.6349 9.46355C20.6349 10.4399 19.8386 11.2315 18.8563 11.2315C17.874 11.2315 17.0777 10.4399 17.0777 9.46355C17.0777 8.48716 17.874 7.69564 18.8563 7.69564C19.8386 7.69564 20.6349 8.48716 20.6349 9.46355ZM8.81396 19.7978C9.17216 19.9717 9.56785 20.0628 9.96771 20.0628C10.2718 20.0628 10.5675 20.0131 10.8591 19.9179C11.5296 19.686 12.0753 19.2016 12.3835 18.5681C13.0249 17.2474 12.4668 15.6658 11.1423 15.0282C10.9174 14.9205 10.655 15.0116 10.5467 15.2311C10.4384 15.4546 10.53 15.7155 10.7508 15.8231C10.7799 15.8356 10.8091 15.848 10.8382 15.8645C11.7129 16.3117 12.0503 17.3757 11.6004 18.2452C11.1506 19.1147 10.076 19.45 9.20548 19.0029C8.98056 18.8952 8.71816 18.9863 8.60987 19.2058C8.50157 19.4293 8.5932 19.6902 8.81396 19.7978Z" fill="white"/>
</svg>
