<svg width="20" height="19" viewBox="0 0 20 19" fill="none" xmlns="http://www.w3.org/2000/svg">
<path fill-rule="evenodd" clip-rule="evenodd" d="M19.6898 12.956V8.88461V0.0109863H2.66849L0.540833 2.30769V14.4176H5.85998V18.1758H8.20041L10.7536 15.4615H17.1366L19.6898 12.956ZM7.13649 12.7473H3.73223C3.49819 12.7473 3.3067 12.5594 3.3067 12.3297V2.09898C3.3067 1.86931 3.49819 1.6814 3.73223 1.6814H17.3493C17.5833 1.6814 17.7748 1.86931 17.7748 2.09898V10.033C17.7748 10.1479 17.7322 10.2523 17.6524 10.3306L15.312 12.6273C15.2322 12.7056 15.1205 12.7473 15.0088 12.7473H11.0993L7.80138 14.971C7.73223 15.0179 7.64713 15.044 7.56202 15.044C7.49287 15.044 7.42904 15.0284 7.36521 14.9971C7.2216 14.924 7.13649 14.783 7.13649 14.6265V12.7473Z" fill="white"/>
<path d="M13.5195 9.09355V4.91772H11.8174V9.09355H13.5195ZM9.2642 9.09355V4.91772H7.56207V9.09355H9.2642Z" fill="white"/>
</svg>
