<svg width="22" height="17" viewBox="0 0 22 17" fill="none" xmlns="http://www.w3.org/2000/svg">
<path fill-rule="evenodd" clip-rule="evenodd" d="M21.5462 1.90599C20.7732 2.22799 19.9422 2.44299 19.0712 2.54099C19.9612 2.04099 20.6442 1.24899 20.9662 0.306986C20.1322 0.768986 19.2102 1.10499 18.2282 1.28699C17.4432 0.500986 16.3222 0.0109863 15.0832 0.0109863C12.7032 0.0109863 10.7722 1.81999 10.7722 4.04999C10.7722 4.36699 10.8102 4.67599 10.8842 4.97099C7.30224 4.80199 4.12624 3.19399 2.00024 0.750986C1.62924 1.34799 1.41724 2.04099 1.41724 2.78199C1.41724 4.18199 2.17824 5.41999 3.33424 6.14399C2.62824 6.12199 1.96424 5.94099 1.38224 5.63799C1.38224 5.65599 1.38224 5.67099 1.38224 5.68999C1.38224 7.64699 2.86724 9.27899 4.83924 9.64999C4.47824 9.74199 4.09624 9.78999 3.70424 9.78999C3.42624 9.78999 3.15624 9.76599 2.89324 9.71999C3.44124 11.323 5.03324 12.492 6.91924 12.525C5.44424 13.608 3.58624 14.253 1.56624 14.253C1.21824 14.253 0.875239 14.234 0.538239 14.197C2.44524 15.342 4.71124 16.012 7.14524 16.012C15.0732 16.012 19.4082 9.85599 19.4082 4.51899C19.4082 4.34299 19.4032 4.16999 19.3952 3.99599C20.2372 3.42599 20.9682 2.71499 21.5462 1.90599Z" fill="white"/>
</svg>
