<svg width="129" height="17" viewBox="0 0 129 17" fill="none" xmlns="http://www.w3.org/2000/svg">
<path d="M0.988942 15.9999C0.915609 15.9999 0.878943 15.9633 0.878945 15.8899L0.923355 0.775938C0.923357 0.717271 0.952691 0.687938 1.01136 0.687938L5.12536 0.665938C5.93203 0.651272 6.66535 0.841939 7.32534 1.23794C8 1.63394 8.53532 2.16927 8.9313 2.84394C9.32728 3.50394 9.52526 4.23727 9.52524 5.04394L9.52507 11.3579C9.52505 12.2086 9.31969 12.9859 8.90901 13.6899C8.49832 14.3793 7.9483 14.9293 7.25896 15.3399C6.56962 15.7506 5.79228 15.9633 4.92694 15.9779L0.988942 15.9999ZM3.56302 13.2939H4.92702C5.46968 13.2939 5.92435 13.1033 6.29103 12.7219C6.67237 12.3406 6.86305 11.8859 6.86307 11.3579L6.86324 5.02194C6.86325 4.55261 6.68726 4.14927 6.33527 3.81194C5.99795 3.45994 5.59462 3.29127 5.12529 3.30594L3.58529 3.32794L3.56302 13.2939ZM15.4488 16.2199C14.6568 16.2199 13.9308 16.0219 13.2708 15.6259C12.6255 15.2153 12.1048 14.6799 11.7088 14.0199C11.3129 13.3453 11.1149 12.6046 11.1149 11.7979L11.1371 4.82394C11.1371 4.01727 11.3278 3.28394 11.7091 2.62394C12.1052 1.96394 12.6332 1.43594 13.2932 1.03994C13.9532 0.643939 14.6719 0.445939 15.4492 0.445939C16.2412 0.445939 16.9599 0.643939 17.6052 1.03994C18.2505 1.43594 18.7638 1.96394 19.1451 2.62394C19.5411 3.28394 19.7391 4.01727 19.7391 4.82394L19.7609 11.7979C19.7609 12.6046 19.5629 13.3453 19.1668 14.0199C18.7855 14.6799 18.2648 15.2153 17.6048 15.6259C16.9595 16.0219 16.2408 16.2199 15.4488 16.2199ZM15.4489 13.5579C15.8889 13.5579 16.2702 13.3819 16.5929 13.0299C16.9302 12.6633 17.0989 12.2526 17.0989 11.7979L17.0771 4.82394C17.0771 4.33994 16.9231 3.92927 16.6151 3.59194C16.3071 3.25461 15.9185 3.08594 15.4491 3.08594C14.9945 3.08594 14.6058 3.25461 14.2831 3.59194C13.9604 3.9146 13.7991 4.32527 13.7991 4.82394L13.7989 11.7979C13.7989 12.2819 13.9602 12.6999 14.2829 13.0519C14.6055 13.3893 14.9942 13.5579 15.4489 13.5579ZM26.1415 16.2199C25.3348 16.2199 24.6015 16.0219 23.9415 15.6259C23.2962 15.2153 22.7828 14.6726 22.4015 13.9979C22.0202 13.3233 21.8296 12.5679 21.8296 11.7319L21.8518 4.86794C21.8518 4.06127 22.0351 3.32794 22.4018 2.66794C22.7832 1.99327 23.2965 1.45794 23.9419 1.06194C24.6019 0.651272 25.3352 0.445939 26.1419 0.445939C26.9486 0.445939 27.6746 0.643939 28.3199 1.03994C28.9652 1.43594 29.4785 1.97127 29.8598 2.64594C30.2411 3.30594 30.4318 4.0466 30.4318 4.86794L30.4317 5.87994C30.4317 5.93861 30.4024 5.96794 30.3437 5.96794H27.8797C27.8211 5.96794 27.7917 5.93861 27.7917 5.87994L27.7918 4.86794C27.7918 4.38394 27.6305 3.96594 27.3078 3.61394C26.9998 3.26194 26.6112 3.08594 26.1418 3.08594C25.6138 3.08594 25.2105 3.26927 24.9318 3.63594C24.6531 3.98794 24.5138 4.3986 24.5138 4.86794L24.5136 11.7319C24.5136 12.2746 24.6676 12.7146 24.9756 13.0519C25.2982 13.3893 25.6869 13.5579 26.1415 13.5579C26.6109 13.5579 26.9995 13.3746 27.3076 13.0079C27.6302 12.6266 27.7916 12.2013 27.7916 11.7319L27.7916 10.7199C27.7916 10.6613 27.821 10.6319 27.8796 10.6319H30.3656C30.4243 10.6319 30.4536 10.6613 30.4536 10.7199L30.4536 11.7319C30.4536 12.5679 30.2555 13.3233 29.8595 13.9979C29.4782 14.6726 28.9648 15.2153 28.3195 15.6259C27.6741 16.0219 26.9481 16.2199 26.1415 16.2199ZM36.8991 16.2199C36.1218 16.2199 35.4031 16.0219 34.7431 15.6259C34.0831 15.2153 33.5552 14.6726 33.1592 13.9979C32.7779 13.3233 32.5872 12.5826 32.5872 11.7759L32.6315 0.775938C32.6315 0.717271 32.6609 0.687938 32.7195 0.687938H35.1835C35.2422 0.687938 35.2715 0.717271 35.2715 0.775938L35.2712 11.7759C35.2712 12.2746 35.4252 12.6999 35.7332 13.0519C36.0559 13.3893 36.4445 13.5579 36.8992 13.5579C37.3685 13.5579 37.7572 13.3893 38.0652 13.0519C38.3879 12.6999 38.5492 12.2746 38.5492 11.7759L38.5495 0.775938C38.5495 0.717271 38.5789 0.687938 38.6375 0.687938H41.1015C41.1602 0.687938 41.1895 0.717271 41.1895 0.775938L41.2332 11.7759C41.2332 12.5973 41.0352 13.3453 40.6392 14.0199C40.2578 14.6946 39.7371 15.2299 39.0771 15.6259C38.4318 16.0219 37.7058 16.2199 36.8991 16.2199ZM43.7183 15.9999C43.6596 15.9999 43.6303 15.9633 43.6303 15.8899L43.6747 0.775938C43.6747 0.717271 43.704 0.687938 43.7627 0.687938H46.4467C46.5053 0.687938 46.5567 0.717271 46.6007 0.775938L48.6026 3.67994L50.6047 0.775938C50.6487 0.717271 50.7 0.687938 50.7587 0.687938H53.4647C53.5233 0.687938 53.5527 0.717271 53.5527 0.775938L53.5963 15.8899C53.5963 15.9633 53.5669 15.9999 53.5083 15.9999H51.0223C50.9636 15.9999 50.9343 15.9633 50.9343 15.8899L50.9126 4.66994L48.6025 8.01394L46.3146 4.66994L46.2923 15.8899C46.2923 15.9633 46.2629 15.9999 46.2043 15.9999H43.7183ZM56.1947 15.9999C56.136 15.9999 56.1067 15.9633 56.1067 15.8899L56.1291 0.775938C56.1291 0.717271 56.1584 0.687938 56.2171 0.687938H63.2791C63.3378 0.687938 63.3671 0.724605 63.3671 0.797938L63.367 3.26194C63.367 3.3206 63.3377 3.34994 63.279 3.34994H58.769L58.7689 6.78194H63.2789C63.3376 6.78194 63.3669 6.81127 63.3669 6.86994L63.3889 9.35594C63.3889 9.41461 63.3595 9.44394 63.3009 9.44394H58.7689L58.7687 13.2939H63.3007C63.3594 13.2939 63.3887 13.3306 63.3887 13.4039L63.3887 15.9119C63.3887 15.9706 63.3593 15.9999 63.3007 15.9999H56.1947ZM66.203 15.9999C66.0856 15.9999 66.027 15.9486 66.027 15.8459L66.0054 0.863938C66.0054 0.746605 66.064 0.687938 66.1814 0.687938H68.1614L71.8791 9.35594L71.7694 0.863938C71.7694 0.746605 71.8354 0.687938 71.9674 0.687938H74.1454C74.2334 0.687938 74.2774 0.746605 74.2774 0.863938L74.299 15.8679C74.299 15.9559 74.2623 15.9999 74.189 15.9999H72.253L68.4472 7.90394L68.601 15.8239C68.601 15.9413 68.535 15.9999 68.403 15.9999H66.203ZM79.07 15.9999C79.0114 15.9999 78.982 15.9633 78.982 15.8899L78.9824 3.34994H76.1224C76.049 3.34994 76.0124 3.31327 76.0124 3.23994L76.0344 0.775938C76.0344 0.717271 76.0638 0.687938 76.1224 0.687938H84.4824C84.5558 0.687938 84.5924 0.717271 84.5924 0.775938L84.5924 3.23994C84.5924 3.31327 84.563 3.34994 84.5044 3.34994H81.6224L81.644 15.8899C81.644 15.9633 81.6147 15.9999 81.556 15.9999H79.07ZM84.7957 15.8899L87.5241 0.775938C87.5388 0.717271 87.5755 0.687938 87.6341 0.687938H90.8241C90.8828 0.687938 90.9194 0.717271 90.9341 0.775938L93.5517 15.8899C93.5664 15.9633 93.537 15.9999 93.4637 15.9999H91.0217C90.963 15.9999 90.9264 15.9633 90.9117 15.8899L90.6697 14.2839H87.6777L87.4357 15.8899C87.421 15.9633 87.3844 15.9999 87.3257 15.9999H84.8837C84.825 15.9999 84.7957 15.9633 84.7957 15.8899ZM88.1178 11.9299H90.2298L89.328 5.74794L89.196 4.93394L89.108 5.74794L88.1178 11.9299ZM96.7396 15.9999C96.681 15.9999 96.6516 15.9633 96.6516 15.8899L96.652 3.34994H93.792C93.7187 3.34994 93.682 3.31327 93.682 3.23994L93.7041 0.775938C93.7041 0.717271 93.7334 0.687938 93.7921 0.687938H102.152C102.225 0.687938 102.262 0.717271 102.262 0.775938L102.262 3.23994C102.262 3.31327 102.233 3.34994 102.174 3.34994H99.292L99.3136 15.8899C99.3136 15.9633 99.2843 15.9999 99.2256 15.9999H96.7396ZM104.118 15.9999C104.045 15.9999 104.008 15.9633 104.008 15.8899L104.031 0.775938C104.031 0.717271 104.06 0.687938 104.119 0.687938H106.583C106.641 0.687938 106.671 0.717271 106.671 0.775938L106.692 15.8899C106.692 15.9633 106.663 15.9999 106.604 15.9999H104.118ZM113.357 16.2199C112.565 16.2199 111.839 16.0219 111.179 15.6259C110.534 15.2153 110.013 14.6799 109.617 14.0199C109.221 13.3453 109.023 12.6046 109.023 11.7979L109.046 4.82394C109.046 4.01727 109.236 3.28394 109.618 2.62394C110.014 1.96394 110.542 1.43594 111.202 1.03994C111.862 0.643939 112.58 0.445939 113.358 0.445939C114.15 0.445939 114.868 0.643939 115.514 1.03994C116.159 1.43594 116.672 1.96394 117.054 2.62394C117.45 3.28394 117.648 4.01727 117.648 4.82394L117.669 11.7979C117.669 12.6046 117.471 13.3453 117.075 14.0199C116.694 14.6799 116.173 15.2153 115.513 15.6259C114.868 16.0219 114.149 16.2199 113.357 16.2199ZM113.357 13.5579C113.797 13.5579 114.179 13.3819 114.501 13.0299C114.839 12.6633 115.007 12.2526 115.007 11.7979L114.986 4.82394C114.986 4.33994 114.832 3.92927 114.524 3.59194C114.216 3.25461 113.827 3.08594 113.358 3.08594C112.903 3.08594 112.514 3.25461 112.192 3.59194C111.869 3.9146 111.708 4.32527 111.708 4.82394L111.707 11.7979C111.707 12.2819 111.869 12.6999 112.191 13.0519C112.514 13.3893 112.903 13.5579 113.357 13.5579ZM120.2 15.9999C120.083 15.9999 120.024 15.9486 120.024 15.8459L120.002 0.863938C120.002 0.746605 120.061 0.687938 120.178 0.687938H122.158L125.876 9.35594L125.766 0.863938C125.766 0.746605 125.832 0.687938 125.964 0.687938H128.142C128.23 0.687938 128.274 0.746605 128.274 0.863938L128.296 15.8679C128.296 15.9559 128.259 15.9999 128.186 15.9999H126.25L122.444 7.90394L122.598 15.8239C122.598 15.9413 122.532 15.9999 122.4 15.9999H120.2Z" fill="black"/>
</svg>
