<svg width="103" height="17" viewBox="0 0 103 17" fill="none" xmlns="http://www.w3.org/2000/svg">
<path d="M2.90294 15.9999C2.84428 15.9999 2.80761 15.9633 2.79295 15.8899L0.197355 0.775938C0.18269 0.717271 0.204691 0.687938 0.263357 0.687938H2.72736C2.78602 0.687938 2.82269 0.717271 2.83736 0.775938L4.24509 10.7199L5.69735 0.775938C5.71202 0.717271 5.75602 0.687938 5.82936 0.687938H7.80936C7.86802 0.687938 7.90469 0.717271 7.91935 0.775938L9.34909 10.7199L10.7794 0.775938C10.794 0.717271 10.8307 0.687938 10.8894 0.687938H13.3314C13.4047 0.687938 13.434 0.717271 13.4194 0.775938L10.8009 15.8899C10.7863 15.9193 10.7643 15.9486 10.7349 15.9779C10.7056 15.9926 10.6909 15.9999 10.6909 15.9999H8.02894C7.98494 15.9999 7.94828 15.9633 7.91895 15.8899L6.79716 7.99194L5.67495 15.8899C5.66028 15.9633 5.62361 15.9999 5.56494 15.9999H2.90294ZM15.4629 15.9999C15.4042 15.9999 15.3749 15.9633 15.3749 15.8899L15.3973 0.775938C15.3973 0.717271 15.434 0.687938 15.5073 0.687938H17.9493C18.0226 0.687938 18.0593 0.717271 18.0593 0.775938L18.0371 6.75994H21.3371L21.3373 0.775938C21.3373 0.717271 21.3666 0.687938 21.4253 0.687938H23.8673C23.9406 0.687938 23.9773 0.717271 23.9773 0.775938L24.0209 15.8899C24.0209 15.9633 23.9842 15.9999 23.9109 15.9999H21.4469C21.3735 15.9999 21.3369 15.9633 21.3369 15.8899L21.3371 9.42194H18.0371L18.0369 15.8899C18.0369 15.9633 18.0075 15.9999 17.9489 15.9999H15.4629ZM30.5463 16.2199C29.7543 16.2199 29.0283 16.0219 28.3683 15.6259C27.723 15.2153 27.2023 14.6799 26.8063 14.0199C26.4104 13.3453 26.2124 12.6046 26.2124 11.7979L26.2346 4.82394C26.2346 4.01727 26.4253 3.28394 26.8066 2.62394C27.2027 1.96394 27.7307 1.43594 28.3907 1.03994C29.0507 0.643939 29.7694 0.445939 30.5467 0.445939C31.3387 0.445939 32.0574 0.643939 32.7027 1.03994C33.348 1.43594 33.8613 1.96394 34.2426 2.62394C34.6386 3.28394 34.8366 4.01727 34.8366 4.82394L34.8584 11.7979C34.8584 12.6046 34.6604 13.3453 34.2643 14.0199C33.883 14.6799 33.3623 15.2153 32.7023 15.6259C32.057 16.0219 31.3383 16.2199 30.5463 16.2199ZM30.5464 13.5579C30.9864 13.5579 31.3677 13.3819 31.6904 13.0299C32.0277 12.6633 32.1964 12.2526 32.1964 11.7979L32.1746 4.82394C32.1746 4.33994 32.0206 3.92927 31.7126 3.59194C31.4046 3.25461 31.016 3.08594 30.5466 3.08594C30.092 3.08594 29.7033 3.25461 29.3806 3.59194C29.0579 3.9146 28.8966 4.32527 28.8966 4.82394L28.8964 11.7979C28.8964 12.2819 29.0577 12.6999 29.3804 13.0519C29.703 13.3893 30.0917 13.5579 30.5464 13.5579ZM37.3452 5.85794C37.2866 5.85794 37.2572 5.82127 37.2572 5.74794L37.6094 0.775938C37.6241 0.717271 37.6607 0.687938 37.7194 0.687938H39.8974C39.9707 0.687938 40.0001 0.717271 39.9854 0.775938L39.5672 5.79194C39.5672 5.83594 39.5452 5.85794 39.5012 5.85794H37.3452ZM46.2531 16.2199C45.4611 16.2199 44.7351 16.0219 44.0751 15.6259C43.4298 15.2153 42.9091 14.6799 42.5131 14.0199C42.1318 13.3453 41.9412 12.6046 41.9412 11.7979L41.9412 10.7859C41.9412 10.7126 41.9779 10.6759 42.0512 10.6759H44.5152C44.5739 10.6759 44.6032 10.7126 44.6032 10.7859L44.6032 11.7979C44.6032 12.2819 44.7645 12.6999 45.0872 13.0519C45.4098 13.3893 45.7985 13.5579 46.2531 13.5579C46.7078 13.5579 47.0965 13.3819 47.4192 13.0299C47.7418 12.6779 47.9032 12.2673 47.9032 11.7979C47.9032 11.2553 47.5512 10.7859 46.8472 10.3899C46.6126 10.2579 46.2459 10.0526 45.7472 9.77394C45.2486 9.49527 44.7793 9.23127 44.3393 8.98194C43.5326 8.51261 42.9313 7.92594 42.5353 7.22194C42.154 6.50327 41.9634 5.69661 41.9634 4.80194C41.9634 3.98061 42.1614 3.24727 42.5574 2.60194C42.9535 1.94194 43.4741 1.42127 44.1195 1.03994C44.7795 0.658605 45.4908 0.467938 46.2535 0.467938C47.0308 0.467938 47.7422 0.665938 48.3875 1.06194C49.0475 1.44327 49.5681 1.96394 49.9494 2.62394C50.3454 3.26927 50.5434 3.99527 50.5434 4.80194L50.5433 6.60594C50.5433 6.66461 50.514 6.69394 50.4553 6.69394H47.9913C47.9327 6.69394 47.9033 6.66461 47.9033 6.60594L47.8814 4.80194C47.8814 4.28861 47.7201 3.8706 47.3974 3.54794C47.0748 3.22527 46.6934 3.06394 46.2534 3.06394C45.7988 3.06394 45.4101 3.23994 45.0874 3.59194C44.7647 3.92927 44.6034 4.33261 44.6034 4.80194C44.6034 5.28594 44.706 5.68927 44.9114 6.01194C45.1167 6.33461 45.4907 6.64261 46.0333 6.93594C46.1067 6.97994 46.246 7.06061 46.4513 7.17794C46.6713 7.28061 46.906 7.40527 47.1553 7.55194C47.4046 7.68394 47.6246 7.80127 47.8153 7.90394C48.0206 8.0066 48.1453 8.0726 48.1893 8.10194C48.9226 8.5126 49.5019 9.01861 49.9273 9.61994C50.3526 10.2066 50.5652 10.9326 50.5652 11.7979C50.5652 12.6339 50.3672 13.3893 49.9711 14.0639C49.5898 14.7239 49.0691 15.2519 48.4091 15.6479C47.7637 16.0293 47.0451 16.2199 46.2531 16.2199ZM60.7287 16.2199C59.9514 16.2199 59.2327 16.0219 58.5727 15.6259C57.9128 15.2153 57.3848 14.6726 56.9888 13.9979C56.6075 13.3233 56.4168 12.5826 56.4168 11.7759L56.4611 0.775938C56.4611 0.717271 56.4905 0.687938 56.5492 0.687938H59.0132C59.0718 0.687938 59.1011 0.717271 59.1011 0.775938L59.1008 11.7759C59.1008 12.2746 59.2548 12.6999 59.5628 13.0519C59.8855 13.3893 60.2741 13.5579 60.7288 13.5579C61.1981 13.5579 61.5868 13.3893 61.8948 13.0519C62.2175 12.6999 62.3788 12.2746 62.3788 11.7759L62.3791 0.775938C62.3791 0.717271 62.4085 0.687938 62.4671 0.687938H64.9312C64.9898 0.687938 65.0191 0.717271 65.0191 0.775938L65.0628 11.7759C65.0628 12.5973 64.8648 13.3453 64.4688 14.0199C64.0874 14.6946 63.5668 15.2299 62.9067 15.6259C62.2614 16.0219 61.5354 16.2199 60.7287 16.2199ZM71.1999 16.2199C70.4079 16.2199 69.6819 16.0219 69.0219 15.6259C68.3766 15.2153 67.8559 14.6799 67.4599 14.0199C67.0786 13.3453 66.888 12.6046 66.888 11.7979L66.888 10.7859C66.888 10.7126 66.9247 10.6759 66.998 10.6759H69.462C69.5207 10.6759 69.55 10.7126 69.55 10.7859L69.55 11.7979C69.55 12.2819 69.7113 12.6999 70.034 13.0519C70.3566 13.3893 70.7453 13.5579 71.1999 13.5579C71.6546 13.5579 72.0433 13.3819 72.366 13.0299C72.6886 12.6779 72.85 12.2673 72.85 11.7979C72.85 11.2553 72.498 10.7859 71.794 10.3899C71.5594 10.2579 71.1927 10.0526 70.694 9.77394C70.1954 9.49527 69.7261 9.23127 69.2861 8.98194C68.4794 8.51261 67.8781 7.92594 67.4821 7.22194C67.1008 6.50327 66.9102 5.69661 66.9102 4.80194C66.9102 3.98061 67.1082 3.24727 67.5042 2.60194C67.9003 1.94194 68.4209 1.42127 69.0663 1.03994C69.7263 0.658605 70.4376 0.467938 71.2003 0.467938C71.9776 0.467938 72.689 0.665938 73.3343 1.06194C73.9943 1.44327 74.5149 1.96394 74.8962 2.62394C75.2922 3.26927 75.4902 3.99527 75.4902 4.80194L75.4901 6.60594C75.4901 6.66461 75.4608 6.69394 75.4021 6.69394H72.9381C72.8795 6.69394 72.8501 6.66461 72.8501 6.60594L72.8282 4.80194C72.8282 4.28861 72.6669 3.8706 72.3442 3.54794C72.0216 3.22527 71.6402 3.06394 71.2002 3.06394C70.7456 3.06394 70.3569 3.23994 70.0342 3.59194C69.7115 3.92927 69.5502 4.33261 69.5502 4.80194C69.5502 5.28594 69.6528 5.68927 69.8581 6.01194C70.0635 6.33461 70.4375 6.64261 70.9801 6.93594C71.0535 6.97994 71.1928 7.06061 71.3981 7.17794C71.6181 7.28061 71.8528 7.40527 72.1021 7.55194C72.3514 7.68394 72.5714 7.80127 72.7621 7.90394C72.9674 8.0066 73.0921 8.0726 73.1361 8.10194C73.8694 8.5126 74.4487 9.01861 74.8741 9.61994C75.2994 10.2066 75.512 10.9326 75.512 11.7979C75.512 12.6339 75.3139 13.3893 74.9179 14.0639C74.5366 14.7239 74.0159 15.2519 73.3559 15.6479C72.7105 16.0293 71.9919 16.2199 71.1999 16.2199ZM77.8119 15.9999C77.7386 15.9999 77.7019 15.9633 77.7019 15.8899L77.7243 0.775938C77.7243 0.717271 77.7537 0.687938 77.8123 0.687938H80.2763C80.335 0.687938 80.3643 0.717271 80.3643 0.775938L80.3859 15.8899C80.3859 15.9633 80.3566 15.9999 80.2979 15.9999H77.8119ZM83.179 15.9999C83.0617 15.9999 83.0031 15.9486 83.0031 15.8459L82.9815 0.863938C82.9815 0.746605 83.0401 0.687938 83.1575 0.687938H85.1375L88.8552 9.35594L88.7455 0.863938C88.7455 0.746605 88.8115 0.687938 88.9435 0.687938H91.1215C91.2095 0.687938 91.2535 0.746605 91.2535 0.863938L91.2751 15.8679C91.2751 15.9559 91.2384 15.9999 91.165 15.9999H89.229L85.4233 7.90394L85.5771 15.8239C85.5771 15.9413 85.511 15.9999 85.379 15.9999H83.179ZM97.8721 16.2199C97.0801 16.2199 96.3615 16.0219 95.7161 15.6259C95.0708 15.2299 94.5502 14.7019 94.1542 14.0419C93.7729 13.3673 93.5822 12.6193 93.5822 11.7979L93.5824 4.82394C93.5824 4.03194 93.7731 3.30594 94.1545 2.64594C94.5505 1.97127 95.0712 1.43594 95.7165 1.03994C96.3765 0.643939 97.0952 0.445939 97.8725 0.445939C98.6792 0.445939 99.4052 0.643939 100.051 1.03994C100.711 1.42127 101.231 1.94194 101.612 2.60194C101.994 3.26194 102.184 4.00261 102.184 4.82394L102.184 5.83594C102.184 5.89461 102.148 5.92394 102.074 5.92394H99.6104C99.5517 5.92394 99.5224 5.89461 99.5224 5.83594L99.5224 4.99994C99.5224 4.4426 99.3611 3.9806 99.0385 3.61394C98.7305 3.24727 98.3418 3.06394 97.8725 3.06394C97.4471 3.06394 97.0658 3.23994 96.7285 3.59194C96.4058 3.94394 96.2444 4.35461 96.2444 4.82394L96.2442 11.7979C96.2442 12.2819 96.4055 12.6999 96.7282 13.0519C97.0509 13.3893 97.4322 13.5579 97.8722 13.5579C98.3415 13.5579 98.7302 13.3893 99.0382 13.0519C99.3609 12.7146 99.5222 12.2966 99.5222 11.7979L99.5223 10.7199H97.9823C97.9089 10.7199 97.8723 10.6833 97.8723 10.6099L97.8723 8.14594C97.8723 8.07261 97.909 8.03594 97.9823 8.03594H102.096C102.155 8.03594 102.184 8.07261 102.184 8.14594L102.184 11.7979C102.184 12.6193 101.986 13.3673 101.59 14.0419C101.209 14.7019 100.695 15.2299 100.05 15.6259C99.4048 16.0219 98.6788 16.2199 97.8721 16.2199Z" fill="black"/>
</svg>
