<svg width="204" height="35" viewBox="0 0 204 35" fill="none" xmlns="http://www.w3.org/2000/svg">
<path d="M8.73633 22.0957L13.834 1.40625H16.5938L16.7695 5.76562L11.3203 27H8.40234L8.73633 22.0957ZM5.51953 1.40625L9.70312 22.0254V27H6.52148L0.720703 1.40625H5.51953ZM22.0605 21.9375L26.1738 1.40625H30.9902L25.1895 27H22.0078L22.0605 21.9375ZM17.9121 1.40625L23.0098 22.166L23.3086 27H20.3906L14.959 5.74805L15.1699 1.40625H17.9121ZM39.69 0V27H35.0318V0H39.69ZM38.9517 16.8047H37.5806C37.5806 15.4805 37.7564 14.2617 38.108 13.1484C38.4595 12.0352 38.9576 11.0684 39.6021 10.248C40.2466 9.41602 41.0142 8.77148 41.9048 8.31445C42.8072 7.85742 43.8033 7.62891 44.8931 7.62891C45.8306 7.62891 46.6802 7.76367 47.442 8.0332C48.2154 8.29102 48.8775 8.70703 49.4283 9.28125C49.9791 9.85547 50.4009 10.6055 50.6939 11.5312C50.9986 12.4453 51.1509 13.5586 51.1509 14.8711V27H46.4752V14.8359C46.4752 13.957 46.3462 13.2656 46.0884 12.7617C45.8306 12.2461 45.4615 11.877 44.981 11.6543C44.5123 11.4316 43.9322 11.3203 43.2408 11.3203C42.4908 11.3203 41.8462 11.4668 41.3072 11.7598C40.7681 12.041 40.3228 12.4336 39.9712 12.9375C39.6314 13.4414 39.3736 14.0215 39.1978 14.6777C39.0337 15.334 38.9517 16.043 38.9517 16.8047ZM55.8605 17.6836V17.3145C55.8605 15.9199 56.0597 14.6367 56.4581 13.4648C56.8566 12.2812 57.4366 11.2559 58.1984 10.3887C58.9601 9.52148 59.8917 8.84766 60.9933 8.36719C62.0948 7.875 63.3488 7.62891 64.755 7.62891C66.1847 7.62891 67.4503 7.875 68.5519 8.36719C69.6652 8.84766 70.6027 9.52148 71.3644 10.3887C72.1261 11.2559 72.7062 12.2812 73.1046 13.4648C73.503 14.6367 73.7023 15.9199 73.7023 17.3145V17.6836C73.7023 19.0664 73.503 20.3496 73.1046 21.5332C72.7062 22.7051 72.1261 23.7305 71.3644 24.6094C70.6027 25.4766 69.671 26.1504 68.5695 26.6309C67.4679 27.1113 66.2081 27.3516 64.7902 27.3516C63.3839 27.3516 62.1241 27.1113 61.0109 26.6309C59.8976 26.1504 58.9601 25.4766 58.1984 24.6094C57.4366 23.7305 56.8566 22.7051 56.4581 21.5332C56.0597 20.3496 55.8605 19.0664 55.8605 17.6836ZM60.5011 17.3145V17.6836C60.5011 18.5156 60.5831 19.2949 60.7472 20.0215C60.9113 20.748 61.1632 21.3867 61.503 21.9375C61.8429 22.4883 62.2823 22.9219 62.8214 23.2383C63.3722 23.543 64.0284 23.6953 64.7902 23.6953C65.5402 23.6953 66.1847 23.543 66.7238 23.2383C67.2628 22.9219 67.7023 22.4883 68.0421 21.9375C68.3937 21.3867 68.6515 20.748 68.8155 20.0215C68.9796 19.2949 69.0616 18.5156 69.0616 17.6836V17.3145C69.0616 16.4941 68.9796 15.7266 68.8155 15.0117C68.6515 14.2852 68.3937 13.6465 68.0421 13.0957C67.7023 12.5332 67.257 12.0938 66.7062 11.7773C66.1671 11.4492 65.5167 11.2852 64.755 11.2852C64.005 11.2852 63.3605 11.4492 62.8214 11.7773C62.2823 12.0938 61.8429 12.5332 61.503 13.0957C61.1632 13.6465 60.9113 14.2852 60.7472 15.0117C60.5831 15.7266 60.5011 16.4941 60.5011 17.3145ZM81.1364 0V2.58398C81.1364 3.32227 80.9958 4.0957 80.7145 4.9043C80.445 5.70117 80.07 6.46289 79.5895 7.18945C79.1208 7.9043 78.5876 8.51953 77.9899 9.03516L75.7399 7.68164C76.2087 6.9668 76.5895 6.20508 76.8825 5.39648C77.1872 4.57617 77.3395 3.64453 77.3395 2.60156V0H81.1364ZM93.6858 21.7969C93.6858 21.3984 93.5803 21.041 93.3694 20.7246C93.1584 20.4082 92.76 20.1211 92.1741 19.8633C91.5998 19.5938 90.7561 19.3418 89.6428 19.1074C88.6584 18.8965 87.7502 18.6328 86.9182 18.3164C86.0862 18 85.3713 17.6191 84.7737 17.1738C84.176 16.7168 83.7073 16.1836 83.3674 15.5742C83.0393 14.9531 82.8752 14.2383 82.8752 13.4297C82.8752 12.6445 83.0452 11.9062 83.385 11.2148C83.7248 10.5117 84.217 9.89648 84.8616 9.36914C85.5061 8.83008 86.2913 8.4082 87.217 8.10352C88.1428 7.78711 89.1858 7.62891 90.3459 7.62891C91.9631 7.62891 93.3518 7.89258 94.512 8.41992C95.6838 8.94727 96.5803 9.67383 97.2014 10.5996C97.8225 11.5137 98.133 12.5449 98.133 13.6934H93.4924C93.4924 13.1895 93.3752 12.7324 93.1409 12.3223C92.9182 11.9121 92.5725 11.584 92.1038 11.3379C91.635 11.0801 91.0432 10.9512 90.3284 10.9512C89.6838 10.9512 89.1389 11.0566 88.6936 11.2676C88.26 11.4785 87.9319 11.7539 87.7092 12.0938C87.4866 12.4336 87.3752 12.8086 87.3752 13.2188C87.3752 13.5234 87.4338 13.7988 87.551 14.0449C87.6799 14.2793 87.885 14.4961 88.1663 14.6953C88.4475 14.8945 88.8284 15.0762 89.3088 15.2402C89.801 15.4043 90.4045 15.5625 91.1194 15.7148C92.5373 15.9961 93.7737 16.3711 94.8284 16.8398C95.8948 17.2969 96.7268 17.9062 97.3245 18.668C97.9221 19.4297 98.2209 20.4023 98.2209 21.5859C98.2209 22.4297 98.0393 23.2031 97.676 23.9062C97.3127 24.5977 96.7854 25.2012 96.094 25.7168C95.4026 26.2324 94.5764 26.6367 93.6155 26.9297C92.6545 27.2109 91.5705 27.3516 90.3635 27.3516C88.6174 27.3516 87.1409 27.041 85.9338 26.4199C84.7268 25.7871 83.8127 24.9902 83.1916 24.0293C82.5705 23.0566 82.26 22.0488 82.26 21.0059H86.7073C86.7424 21.7441 86.9416 22.3359 87.3049 22.7812C87.6682 23.2266 88.1252 23.5488 88.676 23.748C89.2385 23.9355 89.8303 24.0293 90.4514 24.0293C91.1545 24.0293 91.7463 23.9355 92.2268 23.748C92.7073 23.5488 93.0705 23.2852 93.3166 22.957C93.5627 22.6172 93.6858 22.2305 93.6858 21.7969ZM124.919 22.4824V7.98047H129.595V27H125.201L124.919 22.4824ZM125.517 18.5449L126.958 18.5098C126.958 19.7871 126.818 20.9648 126.536 22.043C126.255 23.1211 125.816 24.0586 125.218 24.8555C124.632 25.6406 123.888 26.2559 122.986 26.7012C122.083 27.1348 121.017 27.3516 119.786 27.3516C118.849 27.3516 117.994 27.2227 117.22 26.9648C116.447 26.6953 115.779 26.2793 115.216 25.7168C114.665 25.1426 114.238 24.4102 113.933 23.5195C113.628 22.6172 113.476 21.5332 113.476 20.2676V7.98047H118.117V20.3027C118.117 20.9355 118.187 21.4629 118.327 21.8848C118.48 22.3066 118.685 22.6523 118.943 22.9219C119.212 23.1797 119.523 23.3672 119.874 23.4844C120.238 23.5898 120.624 23.6426 121.035 23.6426C122.16 23.6426 123.044 23.4199 123.689 22.9746C124.345 22.5176 124.814 21.9082 125.095 21.1465C125.376 20.373 125.517 19.5059 125.517 18.5449ZM145.607 21.7969C145.607 21.3984 145.502 21.041 145.291 20.7246C145.08 20.4082 144.682 20.1211 144.096 19.8633C143.521 19.5938 142.678 19.3418 141.564 19.1074C140.58 18.8965 139.672 18.6328 138.84 18.3164C138.008 18 137.293 17.6191 136.695 17.1738C136.098 16.7168 135.629 16.1836 135.289 15.5742C134.961 14.9531 134.797 14.2383 134.797 13.4297C134.797 12.6445 134.967 11.9062 135.307 11.2148C135.646 10.5117 136.139 9.89648 136.783 9.36914C137.428 8.83008 138.213 8.4082 139.139 8.10352C140.064 7.78711 141.107 7.62891 142.268 7.62891C143.885 7.62891 145.273 7.89258 146.434 8.41992C147.605 8.94727 148.502 9.67383 149.123 10.5996C149.744 11.5137 150.055 12.5449 150.055 13.6934H145.414C145.414 13.1895 145.297 12.7324 145.062 12.3223C144.84 11.9121 144.494 11.584 144.025 11.3379C143.557 11.0801 142.965 10.9512 142.25 10.9512C141.605 10.9512 141.06 11.0566 140.615 11.2676C140.182 11.4785 139.853 11.7539 139.631 12.0938C139.408 12.4336 139.297 12.8086 139.297 13.2188C139.297 13.5234 139.355 13.7988 139.473 14.0449C139.601 14.2793 139.807 14.4961 140.088 14.6953C140.369 14.8945 140.75 15.0762 141.23 15.2402C141.723 15.4043 142.326 15.5625 143.041 15.7148C144.459 15.9961 145.695 16.3711 146.75 16.8398C147.816 17.2969 148.648 17.9062 149.246 18.668C149.844 19.4297 150.143 20.4023 150.143 21.5859C150.143 22.4297 149.961 23.2031 149.598 23.9062C149.234 24.5977 148.707 25.2012 148.016 25.7168C147.324 26.2324 146.498 26.6367 145.537 26.9297C144.576 27.2109 143.492 27.3516 142.285 27.3516C140.539 27.3516 139.062 27.041 137.855 26.4199C136.648 25.7871 135.734 24.9902 135.113 24.0293C134.492 23.0566 134.182 22.0488 134.182 21.0059H138.629C138.664 21.7441 138.863 22.3359 139.226 22.7812C139.59 23.2266 140.047 23.5488 140.598 23.748C141.16 23.9355 141.752 24.0293 142.373 24.0293C143.076 24.0293 143.668 23.9355 144.148 23.748C144.629 23.5488 144.992 23.2852 145.238 22.957C145.484 22.6172 145.607 22.2305 145.607 21.7969ZM160.038 7.98047V27H155.379V7.98047H160.038ZM155.063 3.00586C155.063 2.31445 155.297 1.74023 155.766 1.2832C156.247 0.826172 156.891 0.597656 157.7 0.597656C158.508 0.597656 159.147 0.826172 159.616 1.2832C160.096 1.74023 160.336 2.31445 160.336 3.00586C160.336 3.68555 160.096 4.25391 159.616 4.71094C159.147 5.16797 158.508 5.39648 157.7 5.39648C156.891 5.39648 156.247 5.16797 155.766 4.71094C155.297 4.25391 155.063 3.68555 155.063 3.00586ZM170.46 12.041V27H165.819V7.98047H170.179L170.46 12.041ZM169.722 16.8047H168.351C168.362 15.4219 168.55 14.168 168.913 13.043C169.276 11.918 169.786 10.9512 170.442 10.1426C171.11 9.33398 171.901 8.71289 172.815 8.2793C173.73 7.8457 174.749 7.62891 175.874 7.62891C176.788 7.62891 177.614 7.75781 178.353 8.01562C179.091 8.27344 179.724 8.68359 180.251 9.24609C180.79 9.80859 181.2 10.5469 181.481 11.4609C181.774 12.3633 181.921 13.4766 181.921 14.8008V27H177.245V14.7656C177.245 13.8984 177.116 13.2129 176.858 12.709C176.612 12.2051 176.249 11.8477 175.769 11.6367C175.3 11.4258 174.72 11.3203 174.028 11.3203C173.314 11.3203 172.687 11.4668 172.148 11.7598C171.62 12.041 171.175 12.4336 170.812 12.9375C170.46 13.4414 170.19 14.0215 170.003 14.6777C169.815 15.334 169.722 16.043 169.722 16.8047ZM199.55 7.98047H203.769V26.4199C203.769 28.1426 203.394 29.6016 202.644 30.7969C201.906 32.0039 200.869 32.918 199.533 33.5391C198.197 34.1719 196.644 34.4883 194.875 34.4883C194.113 34.4883 193.287 34.3828 192.396 34.1719C191.517 33.9609 190.668 33.627 189.847 33.1699C189.039 32.7246 188.365 32.1445 187.826 31.4297L189.918 28.6875C190.55 29.4258 191.265 29.9824 192.062 30.3574C192.859 30.7441 193.72 30.9375 194.646 30.9375C195.584 30.9375 196.38 30.7617 197.037 30.4102C197.705 30.0703 198.214 29.5664 198.566 28.8984C198.929 28.2422 199.111 27.4336 199.111 26.4727V12.3223L199.55 7.98047ZM186.701 17.7188V17.3496C186.701 15.8965 186.877 14.5781 187.228 13.3945C187.58 12.1992 188.084 11.1738 188.74 10.3184C189.408 9.46289 190.211 8.80078 191.148 8.33203C192.097 7.86328 193.164 7.62891 194.347 7.62891C195.601 7.62891 196.656 7.85742 197.511 8.31445C198.379 8.77148 199.093 9.42188 199.656 10.2656C200.23 11.1094 200.675 12.1113 200.992 13.2715C201.32 14.4199 201.572 15.6855 201.748 17.0684V18.0703C201.584 19.418 201.32 20.6543 200.957 21.7793C200.605 22.9043 200.136 23.8887 199.55 24.7324C198.964 25.5645 198.238 26.209 197.371 26.666C196.504 27.123 195.484 27.3516 194.312 27.3516C193.14 27.3516 192.086 27.1113 191.148 26.6309C190.211 26.1504 189.408 25.4766 188.74 24.6094C188.084 23.7422 187.58 22.7227 187.228 21.5508C186.877 20.3789 186.701 19.1016 186.701 17.7188ZM191.341 17.3496V17.7188C191.341 18.5391 191.423 19.3066 191.587 20.0215C191.752 20.7363 192.004 21.3691 192.343 21.9199C192.683 22.459 193.111 22.8809 193.627 23.1855C194.142 23.4902 194.757 23.6426 195.472 23.6426C196.433 23.6426 197.218 23.4434 197.828 23.0449C198.449 22.6348 198.918 22.0781 199.234 21.375C199.562 20.6602 199.773 19.8574 199.867 18.9668V16.207C199.808 15.5039 199.679 14.8535 199.48 14.2559C199.293 13.6582 199.029 13.1426 198.689 12.709C198.349 12.2754 197.916 11.9355 197.388 11.6895C196.861 11.4434 196.234 11.3203 195.507 11.3203C194.804 11.3203 194.189 11.4785 193.662 11.7949C193.134 12.0996 192.701 12.5273 192.361 13.0781C192.021 13.6289 191.763 14.2676 191.587 14.9941C191.423 15.7207 191.341 16.5059 191.341 17.3496Z" fill="black"/>
</svg>
