<svg width="27" height="26" viewBox="0 0 27 26" fill="none" xmlns="http://www.w3.org/2000/svg">
<path fill-rule="evenodd" clip-rule="evenodd" d="M13.281 25.902C20.4365 25.902 26.2372 20.1255 26.2372 12.9999C26.2372 5.87434 20.4365 0.0979004 13.281 0.0979004C6.12551 0.0979004 0.324829 5.87434 0.324829 12.9999C0.324829 14.3143 0.522181 15.5827 0.888986 16.7774C0.982581 16.7942 1.13393 16.8326 1.35447 16.8969L1.01014 11.5017C1.01014 11.4028 1.17765 11.3552 1.33113 11.3117C1.41536 11.2877 1.49536 11.265 1.54112 11.2357C1.66608 11.157 4.2393 12.0927 4.37675 12.1548L7.66729 13.637C8.517 13.1029 9.53333 12.8876 10.533 13.0325L13.5236 9.40147C13.5611 6.50326 15.9353 4.16813 18.8552 4.16399C21.5834 4.19297 23.8451 6.26312 24.1034 8.95846C24.3783 11.8732 22.229 14.4568 19.2967 14.7342L14.315 18.2741C14.011 19.8268 12.8947 21.0978 11.3869 21.6029C9.07515 22.3813 6.5635 21.1475 5.7846 18.8455L4.05186 18.2741C3.92339 18.2335 1.56525 17.2566 0.926608 16.8979C2.586 22.1182 7.48978 25.902 13.281 25.902ZM21.5211 9.46349C21.5211 10.9269 20.3275 12.1133 18.8552 12.1133C17.3829 12.1133 16.1894 10.9269 16.1894 9.46349C16.1894 8.00005 17.3829 6.81369 18.8552 6.81369C20.3275 6.81369 21.5211 8.00005 21.5211 9.46349ZM20.6343 9.46355C20.6343 10.4399 19.838 11.2315 18.8557 11.2315C17.8734 11.2315 17.0771 10.4399 17.0771 9.46355C17.0771 8.48716 17.8734 7.69564 18.8557 7.69564C19.838 7.69564 20.6343 8.48716 20.6343 9.46355ZM8.81335 19.7978C9.17155 19.9717 9.56724 20.0628 9.9671 20.0628C10.2712 20.0628 10.5669 20.0131 10.8584 19.9179C11.529 19.686 12.0747 19.2016 12.3829 18.5681C13.0243 17.2474 12.4662 15.6658 11.1417 15.0282C10.9168 14.9205 10.6543 15.0116 10.5461 15.2311C10.4378 15.4546 10.5294 15.7155 10.7501 15.8231C10.7793 15.8356 10.8085 15.848 10.8376 15.8645C11.7123 16.3117 12.0497 17.3757 11.5998 18.2452C11.15 19.1147 10.0754 19.45 9.20487 19.0029C8.97995 18.8952 8.71755 18.9863 8.60925 19.2058C8.50096 19.4293 8.59259 19.6902 8.81335 19.7978Z" fill="white"/>
</svg>
