<svg width="25" height="24" viewBox="0 0 25 24" fill="none" xmlns="http://www.w3.org/2000/svg">
<path d="M8.23533 2.12217C9.50256 2.61908 10.7275 3.27538 11.8821 4.077C12.0135 4.16606 12.1637 4.21294 12.3139 4.21294C12.4641 4.21294 12.6143 4.16606 12.7457 4.077C13.9003 3.27538 15.1253 2.61439 16.3925 2.11748C16.6788 2.00497 16.8712 1.72371 16.8665 1.41431C16.8665 1.10491 16.6741 0.82833 16.3831 0.72051C13.8487 -0.240495 10.7792 -0.240495 8.24941 0.72051C7.96311 0.82833 7.76599 1.1096 7.76599 1.41431C7.76599 1.71902 7.94434 2.00966 8.23533 2.12217Z" fill="white"/>
<path d="M19.1198 2.1265C18.8804 1.96243 18.5754 1.94837 18.3172 2.09369C16.9139 2.9 15.5575 3.8235 14.2762 4.84076C14.1072 4.9767 14.004 5.17828 13.9946 5.39392C13.9852 5.60956 14.0697 5.82051 14.2245 5.97052C16.881 8.49726 20.5607 16.2462 21.4055 19.809C19.5751 16.715 15.4918 9.43483 12.8212 6.94559C12.5349 6.67838 12.0843 6.67838 11.798 6.94559C9.12279 9.43483 5.05358 16.7197 3.22314 19.8184C4.06796 16.2556 7.73822 8.49726 10.3947 5.97052C10.5543 5.82051 10.6388 5.60956 10.6294 5.39392C10.62 5.17828 10.5167 4.9767 10.3478 4.84076C9.06646 3.8235 7.70537 2.9 6.30672 2.09369C6.05797 1.94837 5.74351 1.96243 5.50415 2.1265C2.24221 4.37197 0.294434 8.06129 0.294434 11.9991C0.294434 14.8774 1.33168 17.6526 3.22314 19.8184C5.48537 22.4717 8.79424 23.9999 12.3096 23.9999C15.825 23.9999 19.1386 22.4764 21.4055 19.8137C23.2876 17.6573 24.3248 14.8821 24.3248 11.9991C24.3248 8.06129 22.377 4.37197 19.1198 2.1265Z" fill="white"/>
</svg>
